<?xml version="1.0" standalone="no"?>
<!DOCTYPE svg PUBLIC "-//W3C//DTD SVG 20010904//EN"
 "http://www.w3.org/TR/2001/REC-SVG-20010904/DTD/svg10.dtd">
<svg version="1.0" xmlns="http://www.w3.org/2000/svg"
 width="400.000000pt" height="400.000000pt" viewBox="0 0 400.000000 400.000000"
 preserveAspectRatio="xMidYMid meet">
<metadata>
Created by potrace 1.11, written by Peter Selinger 2001-2013
</metadata>
<g transform="translate(0.000000,400.000000) scale(0.100000,-0.100000)"
fill="#000000" stroke="none">
<path d="M1620 3597 c-201 -117 -392 -229 -424 -248 -58 -34 -60 -36 -103
-138 -23 -57 -41 -106 -39 -108 2 -2 212 116 467 263 255 146 469 267 474 267
6 0 324 -182 707 -404 l698 -404 0 -805 0 -805 -693 -400 c-380 -220 -701
-400 -712 -399 -11 0 -330 179 -710 397 l-690 398 -5 370 -5 371 -72 -180 -73
-180 0 -234 0 -233 28 -16 c28 -16 1374 -796 1473 -854 l56 -32 774 446 774
447 0 904 0 904 -115 66 c-63 37 -407 234 -763 439 -356 205 -655 375 -665
377 -9 2 -180 -91 -382 -209z"/>
<path d="M2056 2753 c-3 -10 -66 -340 -141 -733 -75 -393 -138 -723 -141 -733
-5 -16 2 -18 77 -15 l83 3 143 745 c78 410 143 746 143 748 0 1 -36 2 -79 2
-67 0 -80 -3 -85 -17z"/>
<path d="M1450 2421 l-235 -129 -128 -188 c-71 -104 -133 -197 -138 -206 -8
-14 41 -44 334 -206 353 -196 402 -222 412 -222 3 0 5 60 5 134 l0 134 -277
136 c-166 82 -273 140 -267 145 5 5 129 67 277 137 l267 127 -1 66 c-1 36 -4
96 -8 134 l-6 67 -235 -129z"/>
<path d="M2300 2414 l0 -135 273 -133 272 -133 -271 -136 -271 -136 -6 -92
c-10 -138 -9 -179 6 -179 6 0 183 94 392 209 l380 209 0 123 0 124 -380 207
c-209 114 -383 207 -387 207 -5 1 -8 -60 -8 -135z"/>
</g>
</svg>
